<mxfile host="app.diagrams.net" modified="2024-07-22T13:00:18.348Z" agent="Mozilla/5.0 (Windows NT 10.0; Win64; x64) AppleWebKit/537.36 (KHTML, like Gecko) Chrome/126.0.0.0 Safari/537.36" etag="iwJRxoKGJocZfOZjt8bW" version="24.7.1" type="device">
  <diagram id="C5RBs43oDa-KdzZeNtuy" name="Page-1">
    <mxGraphModel dx="1434" dy="772" grid="1" gridSize="10" guides="1" tooltips="1" connect="1" arrows="1" fold="1" page="1" pageScale="1" pageWidth="827" pageHeight="1169" math="0" shadow="0">
      <root>
        <mxCell id="WIyWlLk6GJQsqaUBKTNV-0" />
        <mxCell id="WIyWlLk6GJQsqaUBKTNV-1" parent="WIyWlLk6GJQsqaUBKTNV-0" />
        <mxCell id="ySzv3xqcnSdjmGMLUxyk-0" value="cliente" style="swimlane;fillColor=#e1d5e7;strokeColor=#9673a6;" parent="WIyWlLk6GJQsqaUBKTNV-1" vertex="1">
          <mxGeometry x="30" y="20" width="200" height="310" as="geometry">
            <mxRectangle x="30" y="20" width="90" height="30" as="alternateBounds" />
          </mxGeometry>
        </mxCell>
        <mxCell id="ySzv3xqcnSdjmGMLUxyk-1" value="-cadastrar cliente" style="text;html=1;align=center;verticalAlign=middle;resizable=0;points=[];autosize=1;strokeColor=none;fillColor=none;" parent="ySzv3xqcnSdjmGMLUxyk-0" vertex="1">
          <mxGeometry x="-10" y="20" width="120" height="30" as="geometry" />
        </mxCell>
        <mxCell id="ySzv3xqcnSdjmGMLUxyk-2" value="+cpf" style="text;html=1;align=center;verticalAlign=middle;resizable=0;points=[];autosize=1;strokeColor=none;fillColor=none;" parent="ySzv3xqcnSdjmGMLUxyk-0" vertex="1">
          <mxGeometry x="-10" y="40" width="50" height="30" as="geometry" />
        </mxCell>
        <mxCell id="ySzv3xqcnSdjmGMLUxyk-3" value="+rg" style="text;html=1;align=center;verticalAlign=middle;resizable=0;points=[];autosize=1;strokeColor=none;fillColor=none;" parent="ySzv3xqcnSdjmGMLUxyk-0" vertex="1">
          <mxGeometry x="-9" y="60" width="40" height="30" as="geometry" />
        </mxCell>
        <mxCell id="ySzv3xqcnSdjmGMLUxyk-4" value="+telefone" style="text;html=1;align=center;verticalAlign=middle;resizable=0;points=[];autosize=1;strokeColor=none;fillColor=none;" parent="ySzv3xqcnSdjmGMLUxyk-0" vertex="1">
          <mxGeometry x="-10" y="80" width="70" height="30" as="geometry" />
        </mxCell>
        <mxCell id="ySzv3xqcnSdjmGMLUxyk-5" value="+endereço" style="text;html=1;align=center;verticalAlign=middle;resizable=0;points=[];autosize=1;strokeColor=none;fillColor=none;" parent="ySzv3xqcnSdjmGMLUxyk-0" vertex="1">
          <mxGeometry x="-10" y="100" width="80" height="30" as="geometry" />
        </mxCell>
        <mxCell id="ySzv3xqcnSdjmGMLUxyk-6" value="+cidade e estado" style="text;html=1;align=center;verticalAlign=middle;resizable=0;points=[];autosize=1;strokeColor=none;fillColor=none;" parent="ySzv3xqcnSdjmGMLUxyk-0" vertex="1">
          <mxGeometry x="-14" y="120" width="120" height="30" as="geometry" />
        </mxCell>
        <mxCell id="ySzv3xqcnSdjmGMLUxyk-7" value="" style="line;strokeWidth=2;html=1;" parent="ySzv3xqcnSdjmGMLUxyk-0" vertex="1">
          <mxGeometry y="170" width="200" height="10" as="geometry" />
        </mxCell>
        <mxCell id="ySzv3xqcnSdjmGMLUxyk-8" value="GetCadastrar cliente" style="text;html=1;align=center;verticalAlign=middle;resizable=0;points=[];autosize=1;strokeColor=none;fillColor=none;" parent="ySzv3xqcnSdjmGMLUxyk-0" vertex="1">
          <mxGeometry x="-9" y="180" width="130" height="30" as="geometry" />
        </mxCell>
        <mxCell id="ySzv3xqcnSdjmGMLUxyk-9" value="SetCpf" style="text;html=1;align=center;verticalAlign=middle;resizable=0;points=[];autosize=1;strokeColor=none;fillColor=none;" parent="ySzv3xqcnSdjmGMLUxyk-0" vertex="1">
          <mxGeometry x="-9" y="200" width="60" height="30" as="geometry" />
        </mxCell>
        <mxCell id="ySzv3xqcnSdjmGMLUxyk-10" value="SetRg" style="text;html=1;align=center;verticalAlign=middle;resizable=0;points=[];autosize=1;strokeColor=none;fillColor=none;" parent="ySzv3xqcnSdjmGMLUxyk-0" vertex="1">
          <mxGeometry x="-10" y="220" width="60" height="30" as="geometry" />
        </mxCell>
        <mxCell id="ySzv3xqcnSdjmGMLUxyk-11" value="SetTelefone" style="text;html=1;align=center;verticalAlign=middle;resizable=0;points=[];autosize=1;strokeColor=none;fillColor=none;" parent="ySzv3xqcnSdjmGMLUxyk-0" vertex="1">
          <mxGeometry x="-10" y="240" width="90" height="30" as="geometry" />
        </mxCell>
        <mxCell id="ySzv3xqcnSdjmGMLUxyk-12" value="SetEndereço" style="text;html=1;align=center;verticalAlign=middle;resizable=0;points=[];autosize=1;strokeColor=none;fillColor=none;" parent="ySzv3xqcnSdjmGMLUxyk-0" vertex="1">
          <mxGeometry x="-8" y="257" width="90" height="30" as="geometry" />
        </mxCell>
        <mxCell id="ySzv3xqcnSdjmGMLUxyk-13" value="SetCidade e estado" style="text;html=1;align=center;verticalAlign=middle;resizable=0;points=[];autosize=1;strokeColor=none;fillColor=none;" parent="ySzv3xqcnSdjmGMLUxyk-0" vertex="1">
          <mxGeometry x="-10" y="280" width="130" height="30" as="geometry" />
        </mxCell>
        <mxCell id="ySzv3xqcnSdjmGMLUxyk-14" value="pedidos" style="swimlane;fillColor=#e1d5e7;strokeColor=#9673a6;" parent="WIyWlLk6GJQsqaUBKTNV-1" vertex="1">
          <mxGeometry x="290" y="30" width="200" height="270" as="geometry" />
        </mxCell>
        <mxCell id="ySzv3xqcnSdjmGMLUxyk-15" value="-pesquisar" style="text;html=1;align=center;verticalAlign=middle;resizable=0;points=[];autosize=1;strokeColor=none;fillColor=none;" parent="ySzv3xqcnSdjmGMLUxyk-14" vertex="1">
          <mxGeometry x="-10" y="20" width="80" height="30" as="geometry" />
        </mxCell>
        <mxCell id="ySzv3xqcnSdjmGMLUxyk-16" value="-nome do produto" style="text;html=1;align=center;verticalAlign=middle;resizable=0;points=[];autosize=1;strokeColor=none;fillColor=none;" parent="ySzv3xqcnSdjmGMLUxyk-14" vertex="1">
          <mxGeometry x="-11" y="40" width="120" height="30" as="geometry" />
        </mxCell>
        <mxCell id="ySzv3xqcnSdjmGMLUxyk-17" value="-novo produto" style="text;html=1;align=center;verticalAlign=middle;resizable=0;points=[];autosize=1;strokeColor=none;fillColor=none;" parent="ySzv3xqcnSdjmGMLUxyk-14" vertex="1">
          <mxGeometry x="-11" y="60" width="100" height="30" as="geometry" />
        </mxCell>
        <mxCell id="ySzv3xqcnSdjmGMLUxyk-18" value="+quantidade" style="text;html=1;align=center;verticalAlign=middle;resizable=0;points=[];autosize=1;strokeColor=none;fillColor=none;" parent="ySzv3xqcnSdjmGMLUxyk-14" vertex="1">
          <mxGeometry x="-10" y="80" width="90" height="30" as="geometry" />
        </mxCell>
        <mxCell id="ySzv3xqcnSdjmGMLUxyk-19" value="+valor" style="text;html=1;align=center;verticalAlign=middle;resizable=0;points=[];autosize=1;strokeColor=none;fillColor=none;" parent="ySzv3xqcnSdjmGMLUxyk-14" vertex="1">
          <mxGeometry x="-11" y="100" width="60" height="30" as="geometry" />
        </mxCell>
        <mxCell id="ySzv3xqcnSdjmGMLUxyk-20" value="+tempo estimado" style="text;html=1;align=center;verticalAlign=middle;resizable=0;points=[];autosize=1;strokeColor=none;fillColor=none;" parent="ySzv3xqcnSdjmGMLUxyk-14" vertex="1">
          <mxGeometry x="-13" y="120" width="120" height="30" as="geometry" />
        </mxCell>
        <mxCell id="ySzv3xqcnSdjmGMLUxyk-22" value="" style="line;strokeWidth=2;html=1;" parent="ySzv3xqcnSdjmGMLUxyk-14" vertex="1">
          <mxGeometry y="150" width="200" height="10" as="geometry" />
        </mxCell>
        <mxCell id="ySzv3xqcnSdjmGMLUxyk-21" value="GetPesquisar" style="text;html=1;align=center;verticalAlign=middle;resizable=0;points=[];autosize=1;strokeColor=none;fillColor=none;" parent="ySzv3xqcnSdjmGMLUxyk-14" vertex="1">
          <mxGeometry x="-11" y="160" width="100" height="30" as="geometry" />
        </mxCell>
        <mxCell id="ySzv3xqcnSdjmGMLUxyk-23" value="GetNovo produto" style="text;html=1;align=center;verticalAlign=middle;resizable=0;points=[];autosize=1;strokeColor=none;fillColor=none;" parent="ySzv3xqcnSdjmGMLUxyk-14" vertex="1">
          <mxGeometry x="-8" y="180" width="110" height="30" as="geometry" />
        </mxCell>
        <mxCell id="ySzv3xqcnSdjmGMLUxyk-24" value="SetQuantidade" style="text;html=1;align=center;verticalAlign=middle;resizable=0;points=[];autosize=1;strokeColor=none;fillColor=none;" parent="ySzv3xqcnSdjmGMLUxyk-14" vertex="1">
          <mxGeometry x="-8" y="200" width="100" height="30" as="geometry" />
        </mxCell>
        <mxCell id="ySzv3xqcnSdjmGMLUxyk-25" value="SetValor" style="text;html=1;align=center;verticalAlign=middle;resizable=0;points=[];autosize=1;strokeColor=none;fillColor=none;" parent="ySzv3xqcnSdjmGMLUxyk-14" vertex="1">
          <mxGeometry x="-11" y="220" width="70" height="30" as="geometry" />
        </mxCell>
        <mxCell id="ySzv3xqcnSdjmGMLUxyk-26" value="SetTempo estimado" style="text;html=1;align=center;verticalAlign=middle;resizable=0;points=[];autosize=1;strokeColor=none;fillColor=none;" parent="ySzv3xqcnSdjmGMLUxyk-14" vertex="1">
          <mxGeometry x="-11" y="240" width="130" height="30" as="geometry" />
        </mxCell>
        <mxCell id="ySzv3xqcnSdjmGMLUxyk-27" value="matéria prima" style="swimlane;fillColor=#e1d5e7;strokeColor=#9673a6;" parent="WIyWlLk6GJQsqaUBKTNV-1" vertex="1">
          <mxGeometry x="542" y="20" width="220" height="390" as="geometry" />
        </mxCell>
        <mxCell id="ySzv3xqcnSdjmGMLUxyk-29" value="+pesquisar" style="text;html=1;align=center;verticalAlign=middle;resizable=0;points=[];autosize=1;strokeColor=none;fillColor=none;" parent="ySzv3xqcnSdjmGMLUxyk-27" vertex="1">
          <mxGeometry x="-5" y="20" width="80" height="30" as="geometry" />
        </mxCell>
        <mxCell id="ySzv3xqcnSdjmGMLUxyk-30" value="+algodão" style="text;html=1;align=center;verticalAlign=middle;resizable=0;points=[];autosize=1;strokeColor=none;fillColor=none;" parent="ySzv3xqcnSdjmGMLUxyk-27" vertex="1">
          <mxGeometry x="-5" y="40" width="70" height="30" as="geometry" />
        </mxCell>
        <mxCell id="ySzv3xqcnSdjmGMLUxyk-31" value="+linha" style="text;html=1;align=center;verticalAlign=middle;resizable=0;points=[];autosize=1;strokeColor=none;fillColor=none;" parent="ySzv3xqcnSdjmGMLUxyk-27" vertex="1">
          <mxGeometry x="-8" y="60" width="60" height="30" as="geometry" />
        </mxCell>
        <mxCell id="ySzv3xqcnSdjmGMLUxyk-32" value="+poliéster" style="text;html=1;align=center;verticalAlign=middle;resizable=0;points=[];autosize=1;strokeColor=none;fillColor=none;" parent="ySzv3xqcnSdjmGMLUxyk-27" vertex="1">
          <mxGeometry x="-8" y="80" width="80" height="30" as="geometry" />
        </mxCell>
        <mxCell id="ySzv3xqcnSdjmGMLUxyk-33" value="+linho" style="text;html=1;align=center;verticalAlign=middle;resizable=0;points=[];autosize=1;strokeColor=none;fillColor=none;" parent="ySzv3xqcnSdjmGMLUxyk-27" vertex="1">
          <mxGeometry x="-8" y="100" width="60" height="30" as="geometry" />
        </mxCell>
        <mxCell id="ySzv3xqcnSdjmGMLUxyk-34" value="-nome matéria prima&amp;nbsp;" style="text;html=1;align=center;verticalAlign=middle;resizable=0;points=[];autosize=1;strokeColor=none;fillColor=none;" parent="ySzv3xqcnSdjmGMLUxyk-27" vertex="1">
          <mxGeometry x="-7" y="120" width="140" height="30" as="geometry" />
        </mxCell>
        <mxCell id="ySzv3xqcnSdjmGMLUxyk-35" value="+unidade" style="text;html=1;align=center;verticalAlign=middle;resizable=0;points=[];autosize=1;strokeColor=none;fillColor=none;" parent="ySzv3xqcnSdjmGMLUxyk-27" vertex="1">
          <mxGeometry x="-5" y="140" width="70" height="30" as="geometry" />
        </mxCell>
        <mxCell id="ySzv3xqcnSdjmGMLUxyk-36" value="+valor" style="text;html=1;align=center;verticalAlign=middle;resizable=0;points=[];autosize=1;strokeColor=none;fillColor=none;" parent="ySzv3xqcnSdjmGMLUxyk-27" vertex="1">
          <mxGeometry x="-8" y="160" width="60" height="30" as="geometry" />
        </mxCell>
        <mxCell id="ySzv3xqcnSdjmGMLUxyk-37" value="-salvar" style="text;html=1;align=center;verticalAlign=middle;resizable=0;points=[];autosize=1;strokeColor=none;fillColor=none;" parent="ySzv3xqcnSdjmGMLUxyk-27" vertex="1">
          <mxGeometry x="-6" y="178" width="60" height="30" as="geometry" />
        </mxCell>
        <mxCell id="ySzv3xqcnSdjmGMLUxyk-38" value="" style="line;strokeWidth=2;html=1;" parent="ySzv3xqcnSdjmGMLUxyk-27" vertex="1">
          <mxGeometry x="1.5" y="198" width="218.5" height="10" as="geometry" />
        </mxCell>
        <mxCell id="ySzv3xqcnSdjmGMLUxyk-39" value="GetPesquisar" style="text;html=1;align=center;verticalAlign=middle;resizable=0;points=[];autosize=1;strokeColor=none;fillColor=none;" parent="ySzv3xqcnSdjmGMLUxyk-27" vertex="1">
          <mxGeometry x="-10" y="207" width="100" height="30" as="geometry" />
        </mxCell>
        <mxCell id="ySzv3xqcnSdjmGMLUxyk-40" value="SetAlgodão" style="text;html=1;align=center;verticalAlign=middle;resizable=0;points=[];autosize=1;strokeColor=none;fillColor=none;" parent="ySzv3xqcnSdjmGMLUxyk-27" vertex="1">
          <mxGeometry x="-9" y="227" width="90" height="30" as="geometry" />
        </mxCell>
        <mxCell id="ySzv3xqcnSdjmGMLUxyk-41" value="SetLinha" style="text;html=1;align=center;verticalAlign=middle;resizable=0;points=[];autosize=1;strokeColor=none;fillColor=none;" parent="ySzv3xqcnSdjmGMLUxyk-27" vertex="1">
          <mxGeometry x="-6" y="247" width="70" height="30" as="geometry" />
        </mxCell>
        <mxCell id="ySzv3xqcnSdjmGMLUxyk-42" value="SetPoliéster" style="text;html=1;align=center;verticalAlign=middle;resizable=0;points=[];autosize=1;strokeColor=none;fillColor=none;" parent="ySzv3xqcnSdjmGMLUxyk-27" vertex="1">
          <mxGeometry x="-7" y="267" width="90" height="30" as="geometry" />
        </mxCell>
        <mxCell id="ySzv3xqcnSdjmGMLUxyk-43" value="SetLinho" style="text;html=1;align=center;verticalAlign=middle;resizable=0;points=[];autosize=1;strokeColor=none;fillColor=none;" parent="ySzv3xqcnSdjmGMLUxyk-27" vertex="1">
          <mxGeometry x="-5" y="285" width="70" height="30" as="geometry" />
        </mxCell>
        <mxCell id="ySzv3xqcnSdjmGMLUxyk-44" value="SetNome da matéria" style="text;html=1;align=center;verticalAlign=middle;resizable=0;points=[];autosize=1;strokeColor=none;fillColor=none;" parent="ySzv3xqcnSdjmGMLUxyk-27" vertex="1">
          <mxGeometry x="-4" y="303" width="130" height="30" as="geometry" />
        </mxCell>
        <mxCell id="ySzv3xqcnSdjmGMLUxyk-45" value="GetUnidade" style="text;html=1;align=center;verticalAlign=middle;resizable=0;points=[];autosize=1;strokeColor=none;fillColor=none;" parent="ySzv3xqcnSdjmGMLUxyk-27" vertex="1">
          <mxGeometry x="-7" y="320" width="90" height="30" as="geometry" />
        </mxCell>
        <mxCell id="ySzv3xqcnSdjmGMLUxyk-46" value="GetValor" style="text;html=1;align=center;verticalAlign=middle;resizable=0;points=[];autosize=1;strokeColor=none;fillColor=none;" parent="ySzv3xqcnSdjmGMLUxyk-27" vertex="1">
          <mxGeometry x="-6" y="339" width="70" height="30" as="geometry" />
        </mxCell>
        <mxCell id="ySzv3xqcnSdjmGMLUxyk-47" value="GetSalvar" style="text;html=1;align=center;verticalAlign=middle;resizable=0;points=[];autosize=1;strokeColor=none;fillColor=none;" parent="ySzv3xqcnSdjmGMLUxyk-27" vertex="1">
          <mxGeometry x="-7" y="360" width="80" height="30" as="geometry" />
        </mxCell>
        <mxCell id="ySzv3xqcnSdjmGMLUxyk-48" value="pagamento" style="swimlane;fillColor=#e1d5e7;strokeColor=#9673a6;" parent="WIyWlLk6GJQsqaUBKTNV-1" vertex="1">
          <mxGeometry x="30" y="360" width="200" height="430" as="geometry" />
        </mxCell>
        <mxCell id="ySzv3xqcnSdjmGMLUxyk-50" value="+realizar pagamento" style="text;html=1;align=center;verticalAlign=middle;resizable=0;points=[];autosize=1;strokeColor=none;fillColor=none;" parent="ySzv3xqcnSdjmGMLUxyk-48" vertex="1">
          <mxGeometry x="-8" y="20" width="130" height="30" as="geometry" />
        </mxCell>
        <mxCell id="ySzv3xqcnSdjmGMLUxyk-51" value="+dinheiro" style="text;html=1;align=center;verticalAlign=middle;resizable=0;points=[];autosize=1;strokeColor=none;fillColor=none;" parent="ySzv3xqcnSdjmGMLUxyk-48" vertex="1">
          <mxGeometry x="-8" y="39" width="70" height="30" as="geometry" />
        </mxCell>
        <mxCell id="ySzv3xqcnSdjmGMLUxyk-52" value="+pix" style="text;html=1;align=center;verticalAlign=middle;resizable=0;points=[];autosize=1;strokeColor=none;fillColor=none;" parent="ySzv3xqcnSdjmGMLUxyk-48" vertex="1">
          <mxGeometry x="-11" y="53" width="50" height="30" as="geometry" />
        </mxCell>
        <mxCell id="ySzv3xqcnSdjmGMLUxyk-53" value="+cartão" style="text;html=1;align=center;verticalAlign=middle;resizable=0;points=[];autosize=1;strokeColor=none;fillColor=none;" parent="ySzv3xqcnSdjmGMLUxyk-48" vertex="1">
          <mxGeometry x="-7" y="69" width="60" height="30" as="geometry" />
        </mxCell>
        <mxCell id="ySzv3xqcnSdjmGMLUxyk-54" value="+nome do cliente" style="text;html=1;align=center;verticalAlign=middle;resizable=0;points=[];autosize=1;strokeColor=none;fillColor=none;" parent="ySzv3xqcnSdjmGMLUxyk-48" vertex="1">
          <mxGeometry x="-11" y="85" width="120" height="30" as="geometry" />
        </mxCell>
        <mxCell id="ySzv3xqcnSdjmGMLUxyk-55" value="+telefone" style="text;html=1;align=center;verticalAlign=middle;resizable=0;points=[];autosize=1;strokeColor=none;fillColor=none;" parent="ySzv3xqcnSdjmGMLUxyk-48" vertex="1">
          <mxGeometry x="-6" y="100" width="70" height="30" as="geometry" />
        </mxCell>
        <mxCell id="ySzv3xqcnSdjmGMLUxyk-56" value="+valor" style="text;html=1;align=center;verticalAlign=middle;resizable=0;points=[];autosize=1;strokeColor=none;fillColor=none;" parent="ySzv3xqcnSdjmGMLUxyk-48" vertex="1">
          <mxGeometry x="-9" y="116" width="60" height="30" as="geometry" />
        </mxCell>
        <mxCell id="ySzv3xqcnSdjmGMLUxyk-57" value="+data de pagamento" style="text;html=1;align=center;verticalAlign=middle;resizable=0;points=[];autosize=1;strokeColor=none;fillColor=none;" parent="ySzv3xqcnSdjmGMLUxyk-48" vertex="1">
          <mxGeometry x="-5" y="131" width="130" height="30" as="geometry" />
        </mxCell>
        <mxCell id="ySzv3xqcnSdjmGMLUxyk-58" value="+troco" style="text;html=1;align=center;verticalAlign=middle;resizable=0;points=[];autosize=1;strokeColor=none;fillColor=none;" parent="ySzv3xqcnSdjmGMLUxyk-48" vertex="1">
          <mxGeometry x="-8" y="147" width="60" height="30" as="geometry" />
        </mxCell>
        <mxCell id="ySzv3xqcnSdjmGMLUxyk-59" value="-pagamento realizado" style="text;html=1;align=center;verticalAlign=middle;resizable=0;points=[];autosize=1;strokeColor=none;fillColor=none;" parent="ySzv3xqcnSdjmGMLUxyk-48" vertex="1">
          <mxGeometry x="-6" y="161" width="140" height="30" as="geometry" />
        </mxCell>
        <mxCell id="ySzv3xqcnSdjmGMLUxyk-60" value="-pagamento não realizado" style="text;html=1;align=center;verticalAlign=middle;resizable=0;points=[];autosize=1;strokeColor=none;fillColor=none;" parent="ySzv3xqcnSdjmGMLUxyk-48" vertex="1">
          <mxGeometry x="-5" y="178" width="160" height="30" as="geometry" />
        </mxCell>
        <mxCell id="ySzv3xqcnSdjmGMLUxyk-61" value="" style="line;strokeWidth=2;html=1;" parent="ySzv3xqcnSdjmGMLUxyk-48" vertex="1">
          <mxGeometry y="215" width="200" height="10" as="geometry" />
        </mxCell>
        <mxCell id="ySzv3xqcnSdjmGMLUxyk-62" value="GetRealizar pagamento" style="text;html=1;align=center;verticalAlign=middle;resizable=0;points=[];autosize=1;strokeColor=none;fillColor=none;" parent="ySzv3xqcnSdjmGMLUxyk-48" vertex="1">
          <mxGeometry x="-9" y="216" width="150" height="30" as="geometry" />
        </mxCell>
        <mxCell id="ySzv3xqcnSdjmGMLUxyk-63" value="SetDinheiro" style="text;html=1;align=center;verticalAlign=middle;resizable=0;points=[];autosize=1;strokeColor=none;fillColor=none;" parent="ySzv3xqcnSdjmGMLUxyk-48" vertex="1">
          <mxGeometry x="-10" y="232" width="90" height="30" as="geometry" />
        </mxCell>
        <mxCell id="ySzv3xqcnSdjmGMLUxyk-64" value="SetPix" style="text;html=1;align=center;verticalAlign=middle;resizable=0;points=[];autosize=1;strokeColor=none;fillColor=none;" parent="ySzv3xqcnSdjmGMLUxyk-48" vertex="1">
          <mxGeometry x="-8" y="250" width="60" height="30" as="geometry" />
        </mxCell>
        <mxCell id="ySzv3xqcnSdjmGMLUxyk-65" value="SerCartão" style="text;html=1;align=center;verticalAlign=middle;resizable=0;points=[];autosize=1;strokeColor=none;fillColor=none;" parent="ySzv3xqcnSdjmGMLUxyk-48" vertex="1">
          <mxGeometry x="-8" y="268" width="80" height="30" as="geometry" />
        </mxCell>
        <mxCell id="ySzv3xqcnSdjmGMLUxyk-66" value="SetNome do cliente" style="text;html=1;align=center;verticalAlign=middle;resizable=0;points=[];autosize=1;strokeColor=none;fillColor=none;" parent="ySzv3xqcnSdjmGMLUxyk-48" vertex="1">
          <mxGeometry x="-8" y="287" width="130" height="30" as="geometry" />
        </mxCell>
        <mxCell id="ySzv3xqcnSdjmGMLUxyk-67" value="SetTelefone" style="text;html=1;align=center;verticalAlign=middle;resizable=0;points=[];autosize=1;strokeColor=none;fillColor=none;" parent="ySzv3xqcnSdjmGMLUxyk-48" vertex="1">
          <mxGeometry x="-9" y="305" width="90" height="30" as="geometry" />
        </mxCell>
        <mxCell id="ySzv3xqcnSdjmGMLUxyk-68" value="SetValor" style="text;html=1;align=center;verticalAlign=middle;resizable=0;points=[];autosize=1;strokeColor=none;fillColor=none;" parent="ySzv3xqcnSdjmGMLUxyk-48" vertex="1">
          <mxGeometry x="-8" y="321" width="70" height="30" as="geometry" />
        </mxCell>
        <mxCell id="ySzv3xqcnSdjmGMLUxyk-69" value="SetData do tempo" style="text;html=1;align=center;verticalAlign=middle;resizable=0;points=[];autosize=1;strokeColor=none;fillColor=none;" parent="ySzv3xqcnSdjmGMLUxyk-48" vertex="1">
          <mxGeometry x="-7" y="337" width="120" height="30" as="geometry" />
        </mxCell>
        <mxCell id="ySzv3xqcnSdjmGMLUxyk-70" value="SetTroco" style="text;html=1;align=center;verticalAlign=middle;resizable=0;points=[];autosize=1;strokeColor=none;fillColor=none;" parent="ySzv3xqcnSdjmGMLUxyk-48" vertex="1">
          <mxGeometry x="-7" y="354" width="70" height="30" as="geometry" />
        </mxCell>
        <mxCell id="ySzv3xqcnSdjmGMLUxyk-71" value="GetPagamento realizado" style="text;html=1;align=center;verticalAlign=middle;resizable=0;points=[];autosize=1;strokeColor=none;fillColor=none;" parent="ySzv3xqcnSdjmGMLUxyk-48" vertex="1">
          <mxGeometry x="-10" y="370" width="160" height="30" as="geometry" />
        </mxCell>
        <mxCell id="ySzv3xqcnSdjmGMLUxyk-72" value="GetPagamento não realizado" style="text;html=1;align=center;verticalAlign=middle;resizable=0;points=[];autosize=1;strokeColor=none;fillColor=none;" parent="ySzv3xqcnSdjmGMLUxyk-48" vertex="1">
          <mxGeometry x="-8" y="390" width="180" height="30" as="geometry" />
        </mxCell>
        <mxCell id="ySzv3xqcnSdjmGMLUxyk-73" value="almoxarifado" style="swimlane;fillColor=#e1d5e7;strokeColor=#9673a6;" parent="WIyWlLk6GJQsqaUBKTNV-1" vertex="1">
          <mxGeometry x="280" y="340" width="200" height="310" as="geometry">
            <mxRectangle x="280" y="340" width="110" height="30" as="alternateBounds" />
          </mxGeometry>
        </mxCell>
        <mxCell id="ySzv3xqcnSdjmGMLUxyk-74" value="-recebimento" style="text;html=1;align=center;verticalAlign=middle;resizable=0;points=[];autosize=1;strokeColor=none;fillColor=none;" parent="ySzv3xqcnSdjmGMLUxyk-73" vertex="1">
          <mxGeometry x="-5" y="20" width="90" height="30" as="geometry" />
        </mxCell>
        <mxCell id="ySzv3xqcnSdjmGMLUxyk-75" value="-armazenamento" style="text;html=1;align=center;verticalAlign=middle;resizable=0;points=[];autosize=1;strokeColor=none;fillColor=none;" parent="ySzv3xqcnSdjmGMLUxyk-73" vertex="1">
          <mxGeometry x="-6" y="36" width="110" height="30" as="geometry" />
        </mxCell>
        <mxCell id="ySzv3xqcnSdjmGMLUxyk-76" value="-movimentação" style="text;html=1;align=center;verticalAlign=middle;resizable=0;points=[];autosize=1;strokeColor=none;fillColor=none;" parent="ySzv3xqcnSdjmGMLUxyk-73" vertex="1">
          <mxGeometry x="-11" y="55" width="110" height="30" as="geometry" />
        </mxCell>
        <mxCell id="ySzv3xqcnSdjmGMLUxyk-77" value="+produto" style="text;html=1;align=center;verticalAlign=middle;resizable=0;points=[];autosize=1;strokeColor=none;fillColor=none;" parent="ySzv3xqcnSdjmGMLUxyk-73" vertex="1">
          <mxGeometry x="-8" y="73" width="70" height="30" as="geometry" />
        </mxCell>
        <mxCell id="ySzv3xqcnSdjmGMLUxyk-78" value="+data" style="text;html=1;align=center;verticalAlign=middle;resizable=0;points=[];autosize=1;strokeColor=none;fillColor=none;" parent="ySzv3xqcnSdjmGMLUxyk-73" vertex="1">
          <mxGeometry x="-6" y="92" width="50" height="30" as="geometry" />
        </mxCell>
        <mxCell id="ySzv3xqcnSdjmGMLUxyk-79" value="+número" style="text;html=1;align=center;verticalAlign=middle;resizable=0;points=[];autosize=1;strokeColor=none;fillColor=none;" parent="ySzv3xqcnSdjmGMLUxyk-73" vertex="1">
          <mxGeometry x="-7" y="109" width="70" height="30" as="geometry" />
        </mxCell>
        <mxCell id="ySzv3xqcnSdjmGMLUxyk-80" value="+entrada" style="text;html=1;align=center;verticalAlign=middle;resizable=0;points=[];autosize=1;strokeColor=none;fillColor=none;" parent="ySzv3xqcnSdjmGMLUxyk-73" vertex="1">
          <mxGeometry x="-7" y="128" width="70" height="30" as="geometry" />
        </mxCell>
        <mxCell id="ySzv3xqcnSdjmGMLUxyk-81" value="+saída" style="text;html=1;align=center;verticalAlign=middle;resizable=0;points=[];autosize=1;strokeColor=none;fillColor=none;" parent="ySzv3xqcnSdjmGMLUxyk-73" vertex="1">
          <mxGeometry x="-7" y="144" width="60" height="30" as="geometry" />
        </mxCell>
        <mxCell id="ySzv3xqcnSdjmGMLUxyk-83" value="" style="line;strokeWidth=2;html=1;" parent="ySzv3xqcnSdjmGMLUxyk-73" vertex="1">
          <mxGeometry y="174" width="200" height="10" as="geometry" />
        </mxCell>
        <mxCell id="ySzv3xqcnSdjmGMLUxyk-82" value="GetRecebimento" style="text;html=1;align=center;verticalAlign=middle;resizable=0;points=[];autosize=1;strokeColor=none;fillColor=none;" parent="ySzv3xqcnSdjmGMLUxyk-73" vertex="1">
          <mxGeometry x="-7" y="175" width="110" height="30" as="geometry" />
        </mxCell>
        <mxCell id="ySzv3xqcnSdjmGMLUxyk-84" value="Getarmazenamento" style="text;html=1;align=center;verticalAlign=middle;resizable=0;points=[];autosize=1;strokeColor=none;fillColor=none;" parent="ySzv3xqcnSdjmGMLUxyk-73" vertex="1">
          <mxGeometry x="-9" y="191" width="130" height="30" as="geometry" />
        </mxCell>
        <mxCell id="ySzv3xqcnSdjmGMLUxyk-85" value="GetMovimentação" style="text;html=1;align=center;verticalAlign=middle;resizable=0;points=[];autosize=1;strokeColor=none;fillColor=none;" parent="ySzv3xqcnSdjmGMLUxyk-73" vertex="1">
          <mxGeometry x="-8" y="209" width="120" height="30" as="geometry" />
        </mxCell>
        <mxCell id="ySzv3xqcnSdjmGMLUxyk-86" value="SetProduto" style="text;html=1;align=center;verticalAlign=middle;resizable=0;points=[];autosize=1;strokeColor=none;fillColor=none;" parent="ySzv3xqcnSdjmGMLUxyk-73" vertex="1">
          <mxGeometry x="-8" y="228" width="80" height="30" as="geometry" />
        </mxCell>
        <mxCell id="ySzv3xqcnSdjmGMLUxyk-87" value="SetData" style="text;html=1;align=center;verticalAlign=middle;resizable=0;points=[];autosize=1;strokeColor=none;fillColor=none;" parent="ySzv3xqcnSdjmGMLUxyk-73" vertex="1">
          <mxGeometry x="-10" y="245" width="70" height="30" as="geometry" />
        </mxCell>
        <mxCell id="ySzv3xqcnSdjmGMLUxyk-88" value="SetNumero" style="text;html=1;align=center;verticalAlign=middle;resizable=0;points=[];autosize=1;strokeColor=none;fillColor=none;" parent="ySzv3xqcnSdjmGMLUxyk-73" vertex="1">
          <mxGeometry x="-7" y="263" width="80" height="30" as="geometry" />
        </mxCell>
        <mxCell id="ySzv3xqcnSdjmGMLUxyk-89" value="SetEntrada" style="text;html=1;align=center;verticalAlign=middle;resizable=0;points=[];autosize=1;strokeColor=none;fillColor=none;" parent="ySzv3xqcnSdjmGMLUxyk-73" vertex="1">
          <mxGeometry x="-6" y="283" width="80" height="30" as="geometry" />
        </mxCell>
        <mxCell id="ySzv3xqcnSdjmGMLUxyk-90" value="setores" style="swimlane;fillColor=#e1d5e7;strokeColor=#9673a6;" parent="WIyWlLk6GJQsqaUBKTNV-1" vertex="1">
          <mxGeometry x="542" y="440" width="200" height="280" as="geometry" />
        </mxCell>
        <mxCell id="ySzv3xqcnSdjmGMLUxyk-91" value="-corte" style="text;html=1;align=center;verticalAlign=middle;resizable=0;points=[];autosize=1;strokeColor=none;fillColor=none;" parent="ySzv3xqcnSdjmGMLUxyk-90" vertex="1">
          <mxGeometry x="-4" y="20" width="50" height="30" as="geometry" />
        </mxCell>
        <mxCell id="ySzv3xqcnSdjmGMLUxyk-92" value="-silk/bordado" style="text;html=1;align=center;verticalAlign=middle;resizable=0;points=[];autosize=1;strokeColor=none;fillColor=none;" parent="ySzv3xqcnSdjmGMLUxyk-90" vertex="1">
          <mxGeometry x="-5" y="38" width="90" height="30" as="geometry" />
        </mxCell>
        <mxCell id="ySzv3xqcnSdjmGMLUxyk-93" value="-costura" style="text;html=1;align=center;verticalAlign=middle;resizable=0;points=[];autosize=1;strokeColor=none;fillColor=none;" parent="ySzv3xqcnSdjmGMLUxyk-90" vertex="1">
          <mxGeometry x="-8" y="53" width="70" height="30" as="geometry" />
        </mxCell>
        <mxCell id="ySzv3xqcnSdjmGMLUxyk-94" value="-estoque" style="text;html=1;align=center;verticalAlign=middle;resizable=0;points=[];autosize=1;strokeColor=none;fillColor=none;" parent="ySzv3xqcnSdjmGMLUxyk-90" vertex="1">
          <mxGeometry x="-7" y="69" width="70" height="30" as="geometry" />
        </mxCell>
        <mxCell id="ySzv3xqcnSdjmGMLUxyk-95" value="-quantidade" style="text;html=1;align=center;verticalAlign=middle;resizable=0;points=[];autosize=1;strokeColor=none;fillColor=none;" parent="ySzv3xqcnSdjmGMLUxyk-90" vertex="1">
          <mxGeometry x="-9" y="85" width="90" height="30" as="geometry" />
        </mxCell>
        <mxCell id="ySzv3xqcnSdjmGMLUxyk-96" value="+número da op" style="text;html=1;align=center;verticalAlign=middle;resizable=0;points=[];autosize=1;strokeColor=none;fillColor=none;" parent="ySzv3xqcnSdjmGMLUxyk-90" vertex="1">
          <mxGeometry x="-5" y="104" width="100" height="30" as="geometry" />
        </mxCell>
        <mxCell id="ySzv3xqcnSdjmGMLUxyk-97" value="" style="line;strokeWidth=2;html=1;" parent="ySzv3xqcnSdjmGMLUxyk-90" vertex="1">
          <mxGeometry y="134" width="200" height="10" as="geometry" />
        </mxCell>
        <mxCell id="ySzv3xqcnSdjmGMLUxyk-98" value="GetCorte" style="text;html=1;align=center;verticalAlign=middle;resizable=0;points=[];autosize=1;strokeColor=none;fillColor=none;" parent="ySzv3xqcnSdjmGMLUxyk-90" vertex="1">
          <mxGeometry x="-7" y="137" width="70" height="30" as="geometry" />
        </mxCell>
        <mxCell id="ySzv3xqcnSdjmGMLUxyk-99" value="GetSilk/bordado" style="text;html=1;align=center;verticalAlign=middle;resizable=0;points=[];autosize=1;strokeColor=none;fillColor=none;" parent="ySzv3xqcnSdjmGMLUxyk-90" vertex="1">
          <mxGeometry x="-8" y="155" width="110" height="30" as="geometry" />
        </mxCell>
        <mxCell id="ySzv3xqcnSdjmGMLUxyk-100" value="GetCostura" style="text;html=1;align=center;verticalAlign=middle;resizable=0;points=[];autosize=1;strokeColor=none;fillColor=none;" parent="ySzv3xqcnSdjmGMLUxyk-90" vertex="1">
          <mxGeometry x="-5" y="173" width="80" height="30" as="geometry" />
        </mxCell>
        <mxCell id="ySzv3xqcnSdjmGMLUxyk-101" value="GetEstoque" style="text;html=1;align=center;verticalAlign=middle;resizable=0;points=[];autosize=1;strokeColor=none;fillColor=none;" parent="ySzv3xqcnSdjmGMLUxyk-90" vertex="1">
          <mxGeometry x="-9" y="193" width="90" height="30" as="geometry" />
        </mxCell>
        <mxCell id="ySzv3xqcnSdjmGMLUxyk-102" value="GetProduto" style="text;html=1;align=center;verticalAlign=middle;resizable=0;points=[];autosize=1;strokeColor=none;fillColor=none;" parent="ySzv3xqcnSdjmGMLUxyk-90" vertex="1">
          <mxGeometry x="-4" y="210" width="80" height="30" as="geometry" />
        </mxCell>
        <mxCell id="ySzv3xqcnSdjmGMLUxyk-103" value="GetQuantidade" style="text;html=1;align=center;verticalAlign=middle;resizable=0;points=[];autosize=1;strokeColor=none;fillColor=none;" parent="ySzv3xqcnSdjmGMLUxyk-90" vertex="1">
          <mxGeometry x="-4" y="229" width="100" height="30" as="geometry" />
        </mxCell>
        <mxCell id="ySzv3xqcnSdjmGMLUxyk-104" value="GetNúmero do op" style="text;html=1;align=center;verticalAlign=middle;resizable=0;points=[];autosize=1;strokeColor=none;fillColor=none;" parent="ySzv3xqcnSdjmGMLUxyk-90" vertex="1">
          <mxGeometry x="-6" y="248" width="120" height="30" as="geometry" />
        </mxCell>
        <mxCell id="ySzv3xqcnSdjmGMLUxyk-105" value="fornecedor" style="swimlane;fillColor=#e1d5e7;strokeColor=#9673a6;" parent="WIyWlLk6GJQsqaUBKTNV-1" vertex="1">
          <mxGeometry x="280" y="680" width="200" height="530" as="geometry" />
        </mxCell>
        <mxCell id="ySzv3xqcnSdjmGMLUxyk-106" value="-pesquisar" style="text;html=1;align=center;verticalAlign=middle;resizable=0;points=[];autosize=1;strokeColor=none;fillColor=none;" parent="ySzv3xqcnSdjmGMLUxyk-105" vertex="1">
          <mxGeometry x="-5" y="20" width="80" height="30" as="geometry" />
        </mxCell>
        <mxCell id="ySzv3xqcnSdjmGMLUxyk-107" value="-fornecedor" style="text;html=1;align=center;verticalAlign=middle;resizable=0;points=[];autosize=1;strokeColor=none;fillColor=none;" parent="ySzv3xqcnSdjmGMLUxyk-105" vertex="1">
          <mxGeometry x="-4" y="40" width="80" height="30" as="geometry" />
        </mxCell>
        <mxCell id="ySzv3xqcnSdjmGMLUxyk-108" value="-cadastrar cliente" style="text;html=1;align=center;verticalAlign=middle;resizable=0;points=[];autosize=1;strokeColor=none;fillColor=none;" parent="ySzv3xqcnSdjmGMLUxyk-105" vertex="1">
          <mxGeometry x="-10" y="58" width="120" height="30" as="geometry" />
        </mxCell>
        <mxCell id="ySzv3xqcnSdjmGMLUxyk-109" value="+nome" style="text;html=1;align=center;verticalAlign=middle;resizable=0;points=[];autosize=1;strokeColor=none;fillColor=none;" parent="ySzv3xqcnSdjmGMLUxyk-105" vertex="1">
          <mxGeometry x="-7" y="76" width="60" height="30" as="geometry" />
        </mxCell>
        <mxCell id="ySzv3xqcnSdjmGMLUxyk-110" value="+cpf" style="text;html=1;align=center;verticalAlign=middle;resizable=0;points=[];autosize=1;strokeColor=none;fillColor=none;" parent="ySzv3xqcnSdjmGMLUxyk-105" vertex="1">
          <mxGeometry x="-10" y="94" width="50" height="30" as="geometry" />
        </mxCell>
        <mxCell id="ySzv3xqcnSdjmGMLUxyk-111" value="+rg" style="text;html=1;align=center;verticalAlign=middle;resizable=0;points=[];autosize=1;strokeColor=none;fillColor=none;" parent="ySzv3xqcnSdjmGMLUxyk-105" vertex="1">
          <mxGeometry x="-6" y="114" width="40" height="30" as="geometry" />
        </mxCell>
        <mxCell id="ySzv3xqcnSdjmGMLUxyk-112" value="+telefone" style="text;html=1;align=center;verticalAlign=middle;resizable=0;points=[];autosize=1;strokeColor=none;fillColor=none;" parent="ySzv3xqcnSdjmGMLUxyk-105" vertex="1">
          <mxGeometry x="-6" y="130" width="70" height="30" as="geometry" />
        </mxCell>
        <mxCell id="ySzv3xqcnSdjmGMLUxyk-113" value="+endereço" style="text;html=1;align=center;verticalAlign=middle;resizable=0;points=[];autosize=1;strokeColor=none;fillColor=none;" parent="ySzv3xqcnSdjmGMLUxyk-105" vertex="1">
          <mxGeometry x="-7" y="149" width="80" height="30" as="geometry" />
        </mxCell>
        <mxCell id="ySzv3xqcnSdjmGMLUxyk-114" value="+cidade e estado" style="text;html=1;align=center;verticalAlign=middle;resizable=0;points=[];autosize=1;strokeColor=none;fillColor=none;" parent="ySzv3xqcnSdjmGMLUxyk-105" vertex="1">
          <mxGeometry x="-9" y="167" width="120" height="30" as="geometry" />
        </mxCell>
        <mxCell id="ySzv3xqcnSdjmGMLUxyk-115" value="+salvar" style="text;html=1;align=center;verticalAlign=middle;resizable=0;points=[];autosize=1;strokeColor=none;fillColor=none;" parent="ySzv3xqcnSdjmGMLUxyk-105" vertex="1">
          <mxGeometry x="-6" y="184" width="60" height="30" as="geometry" />
        </mxCell>
        <mxCell id="ySzv3xqcnSdjmGMLUxyk-116" value="+cancelar" style="text;html=1;align=center;verticalAlign=middle;resizable=0;points=[];autosize=1;strokeColor=none;fillColor=none;" parent="ySzv3xqcnSdjmGMLUxyk-105" vertex="1">
          <mxGeometry x="-9" y="204" width="80" height="30" as="geometry" />
        </mxCell>
        <mxCell id="ySzv3xqcnSdjmGMLUxyk-117" value="+fornecedor não encontrado&amp;nbsp;" style="text;html=1;align=center;verticalAlign=middle;resizable=0;points=[];autosize=1;strokeColor=none;fillColor=none;" parent="ySzv3xqcnSdjmGMLUxyk-105" vertex="1">
          <mxGeometry x="-8" y="225" width="180" height="30" as="geometry" />
        </mxCell>
        <mxCell id="ySzv3xqcnSdjmGMLUxyk-119" value="" style="line;strokeWidth=2;html=1;" parent="ySzv3xqcnSdjmGMLUxyk-105" vertex="1">
          <mxGeometry y="260" width="200" height="10" as="geometry" />
        </mxCell>
        <mxCell id="ySzv3xqcnSdjmGMLUxyk-120" value="GetPesquisar" style="text;html=1;align=center;verticalAlign=middle;resizable=0;points=[];autosize=1;strokeColor=none;fillColor=none;" parent="ySzv3xqcnSdjmGMLUxyk-105" vertex="1">
          <mxGeometry x="-9" y="262" width="100" height="30" as="geometry" />
        </mxCell>
        <mxCell id="ySzv3xqcnSdjmGMLUxyk-121" value="SetFornecedor" style="text;html=1;align=center;verticalAlign=middle;resizable=0;points=[];autosize=1;strokeColor=none;fillColor=none;" parent="ySzv3xqcnSdjmGMLUxyk-105" vertex="1">
          <mxGeometry x="-4" y="281" width="100" height="30" as="geometry" />
        </mxCell>
        <mxCell id="ySzv3xqcnSdjmGMLUxyk-122" value="GetCadastrar cliente" style="text;html=1;align=center;verticalAlign=middle;resizable=0;points=[];autosize=1;strokeColor=none;fillColor=none;" parent="ySzv3xqcnSdjmGMLUxyk-105" vertex="1">
          <mxGeometry x="-4" y="299" width="130" height="30" as="geometry" />
        </mxCell>
        <mxCell id="ySzv3xqcnSdjmGMLUxyk-123" value="SetNome" style="text;html=1;align=center;verticalAlign=middle;resizable=0;points=[];autosize=1;strokeColor=none;fillColor=none;" parent="ySzv3xqcnSdjmGMLUxyk-105" vertex="1">
          <mxGeometry x="-2" y="319" width="70" height="30" as="geometry" />
        </mxCell>
        <mxCell id="ySzv3xqcnSdjmGMLUxyk-124" value="SetCpf" style="text;html=1;align=center;verticalAlign=middle;resizable=0;points=[];autosize=1;strokeColor=none;fillColor=none;" parent="ySzv3xqcnSdjmGMLUxyk-105" vertex="1">
          <mxGeometry x="-4" y="338" width="60" height="30" as="geometry" />
        </mxCell>
        <mxCell id="ySzv3xqcnSdjmGMLUxyk-125" value="SetRg" style="text;html=1;align=center;verticalAlign=middle;resizable=0;points=[];autosize=1;strokeColor=none;fillColor=none;" parent="ySzv3xqcnSdjmGMLUxyk-105" vertex="1">
          <mxGeometry x="-6" y="355" width="60" height="30" as="geometry" />
        </mxCell>
        <mxCell id="ySzv3xqcnSdjmGMLUxyk-126" value="SetTelefone" style="text;html=1;align=center;verticalAlign=middle;resizable=0;points=[];autosize=1;strokeColor=none;fillColor=none;" parent="ySzv3xqcnSdjmGMLUxyk-105" vertex="1">
          <mxGeometry x="-6" y="375" width="90" height="30" as="geometry" />
        </mxCell>
        <mxCell id="ySzv3xqcnSdjmGMLUxyk-127" value="SetEndereço" style="text;html=1;align=center;verticalAlign=middle;resizable=0;points=[];autosize=1;strokeColor=none;fillColor=none;" parent="ySzv3xqcnSdjmGMLUxyk-105" vertex="1">
          <mxGeometry x="-4" y="395" width="90" height="30" as="geometry" />
        </mxCell>
        <mxCell id="ySzv3xqcnSdjmGMLUxyk-128" value="SetCidade e estado" style="text;html=1;align=center;verticalAlign=middle;resizable=0;points=[];autosize=1;strokeColor=none;fillColor=none;" parent="ySzv3xqcnSdjmGMLUxyk-105" vertex="1">
          <mxGeometry x="-6" y="414" width="130" height="30" as="geometry" />
        </mxCell>
        <mxCell id="ySzv3xqcnSdjmGMLUxyk-129" value="GetSalvar" style="text;html=1;align=center;verticalAlign=middle;resizable=0;points=[];autosize=1;strokeColor=none;fillColor=none;" parent="ySzv3xqcnSdjmGMLUxyk-105" vertex="1">
          <mxGeometry x="-7" y="433" width="80" height="30" as="geometry" />
        </mxCell>
        <mxCell id="ySzv3xqcnSdjmGMLUxyk-130" value="GetSalvar" style="text;html=1;align=center;verticalAlign=middle;resizable=0;points=[];autosize=1;strokeColor=none;fillColor=none;" parent="ySzv3xqcnSdjmGMLUxyk-105" vertex="1">
          <mxGeometry x="-7" y="451" width="80" height="30" as="geometry" />
        </mxCell>
        <mxCell id="ySzv3xqcnSdjmGMLUxyk-131" value="GetCancelar" style="text;html=1;align=center;verticalAlign=middle;resizable=0;points=[];autosize=1;strokeColor=none;fillColor=none;" parent="ySzv3xqcnSdjmGMLUxyk-105" vertex="1">
          <mxGeometry x="-5" y="470" width="90" height="30" as="geometry" />
        </mxCell>
        <mxCell id="ySzv3xqcnSdjmGMLUxyk-132" value="GetFornecedor não encontrado" style="text;html=1;align=center;verticalAlign=middle;resizable=0;points=[];autosize=1;strokeColor=none;fillColor=none;" parent="ySzv3xqcnSdjmGMLUxyk-105" vertex="1">
          <mxGeometry x="-4" y="493" width="190" height="30" as="geometry" />
        </mxCell>
      </root>
    </mxGraphModel>
  </diagram>
</mxfile>
